M48
; DRILL file {KiCad 8.0.3-8.0.3-0~ubuntu24.04.1} date 2024-07-26T22:38:19-0400
; FORMAT={-:-/ absolute / inch / decimal}
; #@! TF.CreationDate,2024-07-26T22:38:19-04:00
; #@! TF.GenerationSoftware,Kicad,Pcbnew,8.0.3-8.0.3-0~ubuntu24.04.1
; #@! TF.FileFunction,Plated,1,4,PTH
FMAT,2
INCH
; #@! TA.AperFunction,Plated,PTH,ViaDrill
T1C0.0118
; #@! TA.AperFunction,Plated,PTH,ComponentDrill
T2C0.0343
; #@! TA.AperFunction,Plated,PTH,ComponentDrill
T3C0.0394
%
G90
G05
T1
X4.6201Y-3.8445
X4.7992Y-3.5315
X4.8209Y-3.5709
X4.8543Y-3.5807
X4.8937Y-3.4961
X4.9193Y-3.5787
X4.9331Y-3.502
X4.9744Y-3.5079
X4.9843Y-3.5827
X5.0118Y-3.5079
X5.0413Y-3.8917
X5.0512Y-3.5079
X5.0571Y-3.5787
X5.091Y-3.6007
X5.1043Y-3.4547
X5.1516Y-3.6004
X5.2047Y-3.4882
X5.2441Y-3.561
X5.2461Y-3.5157
X5.2948Y-3.6358
X5.2948Y-3.6693
X5.2948Y-3.7047
X5.3342Y-3.6713
X5.3361Y-3.6358
X5.3361Y-3.7047
X5.378Y-3.5906
X5.4291Y-3.5276
X5.4405Y-3.6811
X5.502Y-3.626
X5.5217Y-3.5709
X5.5374Y-3.626
X5.5591Y-3.5728
X5.5689Y-3.626
X5.6299Y-3.6516
X5.6673Y-3.7146
X5.6713Y-3.6575
X5.7008Y-3.5453
X5.7067Y-3.6575
X5.7421Y-3.5413
X5.7894Y-3.5472
X5.8012Y-3.6634
X5.8484Y-3.6634
X5.9094Y-3.6732
X5.9429Y-3.6201
X5.9764Y-3.624
X5.9783Y-3.6713
X5.997Y-3.5711
X6.0138Y-3.622
X6.0226Y-3.5868
X6.0256Y-3.6713
X6.0521Y-3.6085
X6.2264Y-3.5366
X6.2677Y-3.7118
X6.2717Y-3.4717
X6.2854Y-3.7866
X6.3031Y-3.3831
X6.4154Y-3.3673
X6.4173Y-3.5031
X6.4409Y-3.7236
T2
X4.7369Y-3.4783
X4.8369Y-3.4783
T3
X5.3162Y-3.311
X5.4162Y-3.311
X5.5162Y-3.311
X6.5945Y-3.5681
X6.5945Y-3.6681
X6.5945Y-3.7681
X6.5945Y-3.8681
M30
