%TF.GenerationSoftware,KiCad,Pcbnew,8.0.3-8.0.3-0~ubuntu24.04.1*%
%TF.CreationDate,2024-07-26T22:38:26-04:00*%
%TF.ProjectId,Microphone_ADC,4d696372-6f70-4686-9f6e-655f4144432e,rev?*%
%TF.SameCoordinates,Original*%
%TF.FileFunction,Soldermask,Top*%
%TF.FilePolarity,Negative*%
%FSLAX46Y46*%
G04 Gerber Fmt 4.6, Leading zero omitted, Abs format (unit mm)*
G04 Created by KiCad (PCBNEW 8.0.3-8.0.3-0~ubuntu24.04.1) date 2024-07-26 22:38:26*
%MOMM*%
%LPD*%
G01*
G04 APERTURE LIST*
G04 Aperture macros list*
%AMRoundRect*
0 Rectangle with rounded corners*
0 $1 Rounding radius*
0 $2 $3 $4 $5 $6 $7 $8 $9 X,Y pos of 4 corners*
0 Add a 4 corners polygon primitive as box body*
4,1,4,$2,$3,$4,$5,$6,$7,$8,$9,$2,$3,0*
0 Add four circle primitives for the rounded corners*
1,1,$1+$1,$2,$3*
1,1,$1+$1,$4,$5*
1,1,$1+$1,$6,$7*
1,1,$1+$1,$8,$9*
0 Add four rect primitives between the rounded corners*
20,1,$1+$1,$2,$3,$4,$5,0*
20,1,$1+$1,$4,$5,$6,$7,0*
20,1,$1+$1,$6,$7,$8,$9,0*
20,1,$1+$1,$8,$9,$2,$3,0*%
G04 Aperture macros list end*
%ADD10RoundRect,0.250000X-0.475000X0.337500X-0.475000X-0.337500X0.475000X-0.337500X0.475000X0.337500X0*%
%ADD11RoundRect,0.250000X0.350000X0.450000X-0.350000X0.450000X-0.350000X-0.450000X0.350000X-0.450000X0*%
%ADD12RoundRect,0.250000X0.412500X0.650000X-0.412500X0.650000X-0.412500X-0.650000X0.412500X-0.650000X0*%
%ADD13RoundRect,0.250000X-0.450000X0.350000X-0.450000X-0.350000X0.450000X-0.350000X0.450000X0.350000X0*%
%ADD14RoundRect,0.243750X0.456250X-0.243750X0.456250X0.243750X-0.456250X0.243750X-0.456250X-0.243750X0*%
%ADD15R,1.524000X0.584200*%
%ADD16R,0.812800X0.203200*%
%ADD17R,1.701800X2.387600*%
%ADD18RoundRect,0.250000X-0.337500X-0.475000X0.337500X-0.475000X0.337500X0.475000X-0.337500X0.475000X0*%
%ADD19R,1.500800X1.158800*%
%ADD20R,1.700000X1.700000*%
%ADD21O,1.700000X1.700000*%
%ADD22RoundRect,0.250000X0.475000X-0.337500X0.475000X0.337500X-0.475000X0.337500X-0.475000X-0.337500X0*%
%ADD23RoundRect,0.250000X0.450000X-0.350000X0.450000X0.350000X-0.450000X0.350000X-0.450000X-0.350000X0*%
%ADD24RoundRect,0.102000X-0.689000X0.689000X-0.689000X-0.689000X0.689000X-0.689000X0.689000X0.689000X0*%
%ADD25C,1.582000*%
%ADD26RoundRect,0.250000X0.337500X0.475000X-0.337500X0.475000X-0.337500X-0.475000X0.337500X-0.475000X0*%
%ADD27RoundRect,0.250000X-0.350000X-0.450000X0.350000X-0.450000X0.350000X0.450000X-0.350000X0.450000X0*%
G04 APERTURE END LIST*
D10*
%TO.C,C9*%
X149200000Y-89512500D03*
X149200000Y-91587500D03*
%TD*%
D11*
%TO.C,R5*%
X147200000Y-91550000D03*
X145200000Y-91550000D03*
%TD*%
D12*
%TO.C,C4*%
X166474100Y-86855450D03*
X163349100Y-86855450D03*
%TD*%
D13*
%TO.C,R4*%
X161750000Y-96280000D03*
X161750000Y-98280000D03*
%TD*%
%TO.C,R1*%
X127037500Y-95550000D03*
X127037500Y-97550000D03*
%TD*%
D14*
%TO.C,D1*%
X158100000Y-102730000D03*
X158100000Y-100855000D03*
%TD*%
D10*
%TO.C,C7*%
X139500000Y-94250000D03*
X139500000Y-96325000D03*
%TD*%
D15*
%TO.C,U1*%
X155611600Y-90680000D03*
X155611600Y-91630001D03*
X155611600Y-92580002D03*
X158050000Y-92580002D03*
X158050000Y-91630001D03*
X158050000Y-90680000D03*
%TD*%
D16*
%TO.C,U2*%
X136586300Y-94450000D03*
X136586300Y-94050001D03*
X136586300Y-93649999D03*
X136586300Y-93250000D03*
X136586300Y-92850001D03*
X136586300Y-92449999D03*
X136586300Y-92050000D03*
X133487500Y-92050000D03*
X133487500Y-92449999D03*
X133487500Y-92850001D03*
X133487500Y-93250000D03*
X133487500Y-93649999D03*
X133487500Y-94050001D03*
X133487500Y-94450000D03*
D17*
X135036900Y-93250000D03*
%TD*%
D18*
%TO.C,C5*%
X155862500Y-88180000D03*
X157937500Y-88180000D03*
%TD*%
D13*
%TO.C,R2*%
X129387500Y-99600000D03*
X129387500Y-101600000D03*
%TD*%
D11*
%TO.C,R13*%
X158150000Y-98280000D03*
X156150000Y-98280000D03*
%TD*%
D19*
%TO.C,L1*%
X142050000Y-94458100D03*
X142050000Y-96616900D03*
%TD*%
D20*
%TO.C,J3*%
X140112500Y-84100000D03*
D21*
X137572500Y-84100000D03*
X135032500Y-84100000D03*
%TD*%
D22*
%TO.C,C6*%
X138850000Y-89937500D03*
X138850000Y-87862500D03*
%TD*%
D23*
%TO.C,R14*%
X129387500Y-97550000D03*
X129387500Y-95550000D03*
%TD*%
D24*
%TO.C,MK1*%
X120317500Y-88350000D03*
D25*
X122857500Y-88350000D03*
%TD*%
D11*
%TO.C,R15*%
X120687500Y-101200000D03*
X118687500Y-101200000D03*
%TD*%
D26*
%TO.C,C3*%
X136225000Y-96600000D03*
X134150000Y-96600000D03*
%TD*%
D12*
%TO.C,C8*%
X158012500Y-85880000D03*
X154887500Y-85880000D03*
%TD*%
D26*
%TO.C,C1*%
X131737500Y-90150000D03*
X129662500Y-90150000D03*
%TD*%
D27*
%TO.C,R11*%
X153674100Y-102755450D03*
X155674100Y-102755450D03*
%TD*%
D23*
%TO.C,R20*%
X142937500Y-91500000D03*
X142937500Y-89500000D03*
%TD*%
D11*
%TO.C,R17*%
X120687500Y-93550000D03*
X118687500Y-93550000D03*
%TD*%
D27*
%TO.C,R16*%
X118687500Y-99150000D03*
X120687500Y-99150000D03*
%TD*%
D10*
%TO.C,C2*%
X124787500Y-95512500D03*
X124787500Y-97587500D03*
%TD*%
D27*
%TO.C,R12*%
X156150000Y-96130000D03*
X158150000Y-96130000D03*
%TD*%
D23*
%TO.C,R3*%
X161850000Y-92730000D03*
X161850000Y-90730000D03*
%TD*%
D20*
%TO.C,J1*%
X167500000Y-90630000D03*
D21*
X167500000Y-93170000D03*
X167500000Y-95710000D03*
X167500000Y-98250000D03*
%TD*%
D27*
%TO.C,R18*%
X118668700Y-95591400D03*
X120668700Y-95591400D03*
%TD*%
M02*
